<?xml version="1.0" encoding="utf-8"?>
<!-- Generator: Adobe Illustrator 18.1.1, SVG Export Plug-In . SVG Version: 6.00 Build 0)  -->
<svg version="1.1" id="Layer_1" xmlns="http://www.w3.org/2000/svg" xmlns:xlink="http://www.w3.org/1999/xlink" x="0px" y="0px"
	 viewBox="0 0 16 16" enable-background="new 0 0 16 16" xml:space="preserve">
<g>
	<g>
	</g>
	<g>
		<g>
			<g>
			</g>
		</g>
	</g>
</g>
<g>
	<g>
	</g>
	<g>
		<g>
			<g>
			</g>
		</g>
	</g>
</g>
<g>
	<g>
	</g>
	<g>
		<g>
			<g>
			</g>
		</g>
	</g>
</g>
<g>
	<g>
	</g>
	<g>
		<g>
			<g>
			</g>
		</g>
	</g>
</g>
<g>
	<g>
	</g>
	<g>
		<g>
			<g>
			</g>
		</g>
	</g>
</g>
<g>
	<g>
	</g>
	<g>
		<g>
			<g>
			</g>
		</g>
	</g>
</g>
<g>
	<g>
	</g>
	<g>
		<g>
			<g>
			</g>
		</g>
	</g>
</g>
<g>
	<g>
	</g>
	<g>
		<g>
			<g>
			</g>
		</g>
	</g>
</g>
<g>
	<g>
	</g>
	<g>
		<g>
			<g>
			</g>
		</g>
	</g>
</g>
<g>
	<g>
	</g>
	<g>
		<g>
			<g>
			</g>
		</g>
	</g>
</g>
<g>
	<path fill="#131326" d="M3-824.2l-8-4.6l-3,7.8c4.7,4.1,7.7,10.2,7.7,17c0,12.1-9.6,22-21.6,22.6l-7.1,9.1l1.5,0.9
		c1.4,0.8,2.9,1.2,4.5,1.2c1.5,0,3.1-0.4,4.5-1.2L3-783.8c2.8-1.6,4.5-4.5,4.5-7.7v-24.8C7.4-819.6,5.7-822.6,3-824.2z"/>
	<path fill="#131326" d="M-45.6-804c0-12.4,9.9-22.4,22.3-22.6l6.8-8.8l-2-1.1c-2.8-1.6-6.2-1.6-8.9,0L-49-824.2
		c-2.8,1.6-4.5,4.5-4.5,7.7v24.8c0,3.2,1.7,6.1,4.5,7.7l8.4,4.9l2.9-7.8C-42.5-790.9-45.6-797.1-45.6-804z"/>
	<polygon fill="#1EB9D5" points="-40.7,-765 -8.7,-806.3 -18.8,-806.3 -4.7,-843 -37.3,-800.8 -27.3,-800.8 	"/>
</g>
<g>
	<path fill="#131326" d="M4.3-701.1l-7.2-4.1l-2.7,7c4.2,3.7,6.9,9.2,6.9,15.2c0,10.9-8.6,19.8-19.3,20.3l-6.3,8.2l1.3,0.8
		c1.2,0.7,2.6,1.1,4,1.1c1.4,0,2.8-0.4,4-1.1l19.3-11.1c2.5-1.4,4-4.1,4-6.9v-22.3C8.3-697,6.8-699.7,4.3-701.1z"/>
	<path fill="#131326" d="M-39.3-683c0-11.1,8.9-20.1,20-20.3l6.1-7.9l-1.8-1c-2.5-1.4-5.5-1.4-8,0l-19.3,11.1c-2.5,1.4-4,4.1-4,6.9
		v22.3c0,2.9,1.5,5.5,4,6.9l7.5,4.4l2.6-7C-36.5-671.3-39.3-676.8-39.3-683z"/>
	<polygon fill="#1EB9D5" points="-34.9,-648 -6.1,-685.1 -15.3,-685.1 -2.5,-718 -31.9,-680.1 -22.9,-680.1 	"/>
</g>
<g>
	<path fill="#131326" d="M5.3-591.5l-6.6-3.8l-2.5,6.4c3.9,3.4,6.3,8.4,6.3,13.9c0,10-7.8,18.1-17.7,18.6l-5.8,7.5l1.2,0.7
		c1.1,0.7,2.4,1,3.7,1c1.3,0,2.5-0.3,3.7-1l17.6-10.2c2.3-1.3,3.7-3.7,3.7-6.4v-20.4C9-587.8,7.6-590.2,5.3-591.5z"/>
	<path fill="#131326" d="M-34.6-575c0-10.2,8.1-18.4,18.3-18.6l5.6-7.2l-1.6-0.9c-2.3-1.3-5.1-1.3-7.3,0l-17.6,10.2
		c-2.3,1.3-3.7,3.7-3.7,6.4v20.4c0,2.6,1.4,5,3.7,6.4l6.9,4l2.4-6.4C-32-564.3-34.6-569.3-34.6-575z"/>
	<polygon fill="#1EB9D5" points="-30.5,-543 -4.2,-576.9 -12.6,-576.9 -0.9,-607 -27.8,-572.4 -19.5,-572.4 	"/>
</g>
<g>
	<path fill="#131326" d="M6.3-486l-5.9-3.4l-2.2,5.8c3.5,3.1,5.7,7.6,5.7,12.6c0,9-7.1,16.4-16,16.8l-5.2,6.8l1.1,0.6
		c1,0.6,2.2,0.9,3.3,0.9c1.1,0,2.3-0.3,3.3-0.9l16-9.2c2.1-1.2,3.3-3.4,3.3-5.8v-18.5C9.6-482.6,8.4-484.8,6.3-486z"/>
	<path fill="#131326" d="M-29.8-471c0-9.2,7.4-16.7,16.5-16.8l5.1-6.6l-1.5-0.8c-2.1-1.2-4.6-1.2-6.6,0l-16,9.2
		c-2.1,1.2-3.3,3.4-3.3,5.8v18.5c0,2.4,1.3,4.6,3.3,5.8l6.3,3.6l2.2-5.8C-27.5-461.3-29.8-465.9-29.8-471z"/>
	<polygon fill="#1EB9D5" points="-26.1,-442 -2.3,-472.7 -9.9,-472.7 0.6,-500 -23.7,-468.6 -16.2,-468.6 	"/>
</g>
<g>
	<path fill="#131326" d="M7.7-382.9l-5.1-3l-1.9,5c3,2.7,4.9,6.5,4.9,10.9c0,7.8-6.1,14.1-13.8,14.5l-4.5,5.8l1,0.6
		c0.9,0.5,1.9,0.8,2.9,0.8c1,0,2-0.3,2.9-0.8l13.8-8c1.8-1,2.9-2.9,2.9-5V-378C10.5-380,9.4-381.9,7.7-382.9z"/>
	<path fill="#131326" d="M-23.5-370c0-7.9,6.4-14.4,14.3-14.5l4.4-5.6l-1.3-0.7c-1.8-1-4-1-5.7,0l-13.8,8c-1.8,1-2.9,2.9-2.9,5v15.9
		c0,2,1.1,3.9,2.9,5l5.4,3.1l1.9-5C-21.5-361.6-23.5-365.6-23.5-370z"/>
	<polygon fill="#1EB9D5" points="-20.3,-345 0.2,-371.5 -6.3,-371.5 2.8,-395 -18.2,-367.9 -11.8,-367.9 	"/>
</g>
<g>
	<path fill="#131326" d="M8.7-293.4L4.1-296l-1.7,4.4c2.7,2.3,4.3,5.8,4.3,9.6c0,6.8-5.4,12.4-12.2,12.8l-4,5.1l0.8,0.5
		c0.8,0.5,1.7,0.7,2.5,0.7c0.9,0,1.7-0.2,2.5-0.7l12.1-7c1.6-0.9,2.5-2.6,2.5-4.4v-14C11.2-290.8,10.2-292.5,8.7-293.4z"/>
	<path fill="#131326" d="M-18.8-282c0-7,5.6-12.6,12.6-12.8l3.8-5l-1.1-0.6c-1.6-0.9-3.5-0.9-5,0l-12.1,7c-1.6,0.9-2.5,2.6-2.5,4.4
		v14c0,1.8,1,3.5,2.5,4.4l4.7,2.7l1.6-4.4C-17-274.6-18.8-278.1-18.8-282z"/>
	<polygon fill="#1EB9D5" points="-16,-260 2.1,-283.3 -3.7,-283.3 4.3,-304 -14.1,-280.2 -8.4,-280.2 	"/>
</g>
<g>
	<path fill="#131326" d="M10-208.3l-3.7-2.1l-1.4,3.6c2.2,1.9,3.5,4.7,3.5,7.8c0,5.6-4.4,10.2-9.9,10.4l-3.3,4.2l0.7,0.4
		c0.6,0.4,1.4,0.6,2.1,0.6c0.7,0,1.4-0.2,2.1-0.6l9.9-5.7c1.3-0.7,2.1-2.1,2.1-3.6v-11.5C12.1-206.2,11.3-207.6,10-208.3z"/>
	<path fill="#131326" d="M-12.5-199c0-5.7,4.6-10.3,10.3-10.4l3.1-4.1L0.1-214c-1.3-0.7-2.8-0.7-4.1,0l-9.9,5.7
		c-1.3,0.7-2.1,2.1-2.1,3.6v11.5c0,1.5,0.8,2.8,2.1,3.6l3.9,2.2l1.3-3.6C-11-193-12.5-195.8-12.5-199z"/>
	<polygon fill="#1EB9D5" points="-10.2,-181 4.6,-200.1 -0.1,-200.1 6.5,-217 -8.6,-197.5 -4,-197.5 	"/>
</g>
<g>
	<path fill="#131326" d="M11.3-127.2l-2.9-1.7l-1.1,2.8c1.7,1.5,2.8,3.7,2.8,6.1c0,4.4-3.4,7.9-7.7,8.1l-2.5,3.3l0.5,0.3
		c0.5,0.3,1.1,0.4,1.6,0.4c0.6,0,1.1-0.1,1.6-0.4l7.7-4.5c1-0.6,1.6-1.6,1.6-2.8v-8.9C12.9-125.6,12.3-126.7,11.3-127.2z"/>
	<path fill="#131326" d="M-6.1-120c0-4.4,3.6-8,8-8.1l2.4-3.2l-0.7-0.4c-1-0.6-2.2-0.6-3.2,0l-7.7,4.5c-1,0.6-1.6,1.6-1.6,2.8v8.9
		c0,1.1,0.6,2.2,1.6,2.8l3,1.7l1-2.8C-5-115.3-6.1-117.5-6.1-120z"/>
	<polygon fill="#1EB9D5" points="-4.3,-106 7.1,-120.8 3.5,-120.8 8.6,-134 -3.1,-118.8 0.5,-118.8 	"/>
</g>
<g>
	<path fill="#131326" d="M12.3-58.7L10.1-60l-0.8,2.2c1.3,1.2,2.2,2.9,2.2,4.8c0,3.4-2.7,6.2-6.1,6.4l-2,2.6l0.4,0.2
		c0.4,0.2,0.8,0.3,1.3,0.3c0.4,0,0.9-0.1,1.3-0.3l6.1-3.5c0.8-0.5,1.3-1.3,1.3-2.2v-7C13.6-57.4,13.1-58.2,12.3-58.7z"/>
	<path fill="#131326" d="M-1.4-53c0-3.5,2.8-6.3,6.3-6.4l1.9-2.5l-0.6-0.3c-0.8-0.5-1.7-0.5-2.5,0l-6.1,3.5
		c-0.8,0.5-1.3,1.3-1.3,2.2v7c0,0.9,0.5,1.7,1.3,2.2L0-45.9l0.8-2.2C-0.5-49.3-1.4-51.1-1.4-53z"/>
	<polygon fill="#1EB9D5" points="0,-42 9,-53.6 6.2,-53.6 10.2,-64 1,-52.1 3.8,-52.1 	"/>
</g>
<g>
	<path fill="#131326" d="M13.3,3.9l-1.6-0.9l-0.6,1.6c1,0.9,1.6,2.1,1.6,3.5c0,2.5-2,4.5-4.4,4.6l-1.4,1.9l0.3,0.2
		c0.3,0.2,0.6,0.2,0.9,0.2c0.3,0,0.6-0.1,0.9-0.2l4.4-2.5c0.6-0.3,0.9-0.9,0.9-1.6V5.5C14.2,4.8,13.9,4.2,13.3,3.9z"/>
	<path fill="#131326" d="M3.4,8c0-2.5,2-4.6,4.6-4.6l1.4-1.8L8.9,1.3C8.3,1,7.7,1,7.1,1.3L2.7,3.9C2.1,4.2,1.8,4.8,1.8,5.5v5.1
		c0,0.7,0.3,1.3,0.9,1.6l1.7,1L5,11.5C4,10.7,3.4,9.4,3.4,8z"/>
	<polygon fill="#1EB9D5" points="4.4,16 10.9,7.5 8.9,7.5 11.8,0 5.1,8.7 7.1,8.7 	"/>
</g>
</svg>
